# xmcd
#
# Track frame offsets:
#	150
#	12920
#	27787
#	42392
#	61330
#	79126
#	92199
#	101515
#	116660
#	130492
#	142819
#	155705
#	167266
#	185937
#	195890
#	207691
#	220295
#	231900
#	245244
#	256028
#	272008
#
# Disc length: 3888 seconds
#
# Revision: 0
# Processed by: cddbd v1.5.2PL0 Copyright (c) Steve Scherf et al.
# Submitted via: EasyCDDAExtractor 10.2.0.1
#
DISCID=2f0f2e15
DTITLE=Various Artist - Sowing The Word
DYEAR=1900
DGENRE=
TTITLE0=Debbie Helton - Victory Is Sweet
TTITLE1=Steve Bivins - Thank You For Showing Me Jesus
TTITLE2=Kim Ford - Mommy, I'm Not Jesus
TTITLE3=Dan Kirkland - That Night I Walked The Aisle
TTITLE4=Debbie Poyner - Mercy Met Me On My Knees
TTITLE5=New Desire - Worthy By The Blood
TTITLE6=Mark Bales - Are You Ready
TTITLE7=Morgan and Morgan - He's All I Need
TTITLE8=Bill and Linda Green - Spreading Christian Love
TTITLE9=Harold Rogers - Jesus Can Say No
TTITLE10=Sonrise Quartet - He'll Walk On The Water For Me
TTITLE11=The Asmus Family - Miracle Man
TTITLE12=W. C. Taylor Jr. - He Is There
TTITLE13=Harbor Lighthouse - Testify
TTITLE14=The Melashenke Family - Step Into The Water
TTITLE15=Coventry Quartet - Mother's Side
TTITLE16=Margie Salcedo - The Old Fashioned Meeting
TTITLE17=Bob Chance - Teach Me Dear Lord
TTITLE18=Prayful Review - Embrace The World
TTITLE19=Robert Shields - CHildren Of The Street
TTITLE20=Arlene Renee - G-rated Kids In An Xrated World
EXTD=
EXTT0=
EXTT1=
EXTT2=
EXTT3=
EXTT4=
EXTT5=
EXTT6=
EXTT7=
EXTT8=
EXTT9=
EXTT10=
EXTT11=
EXTT12=
EXTT13=
EXTT14=
EXTT15=
EXTT16=
EXTT17=
EXTT18=
EXTT19=
EXTT20=
PLAYORDER=
